<?xml version="1.0" standalone="no"?>
<!DOCTYPE svg PUBLIC "-//W3C//DTD SVG 20010904//EN"
 "http://www.w3.org/TR/2001/REC-SVG-20010904/DTD/svg10.dtd">
<svg version="1.0" xmlns="http://www.w3.org/2000/svg"
 width="256.000000pt" height="256.000000pt" viewBox="0 0 256.000000 256.000000"
 preserveAspectRatio="xMidYMid meet">
<metadata>
Created by potrace 1.11, written by Peter Selinger 2001-2013
</metadata>
<g transform="translate(0.000000,256.000000) scale(0.100000,-0.100000)"
fill="#000000" stroke="none">
<path d="M42 2549 c-12 -5 -25 -15 -28 -23 -3 -8 2 -61 11 -118 9 -57 23 -147
30 -201 10 -75 19 -105 38 -130 36 -47 52 -135 37 -199 -16 -64 -8 -183 14
-226 9 -18 32 -50 50 -70 19 -20 37 -51 40 -68 11 -51 61 -119 112 -154 52
-37 148 -70 199 -70 60 0 120 -97 100 -162 -4 -12 -27 -50 -50 -83 -98 -138
-145 -277 -145 -424 1 -363 311 -611 765 -611 316 0 625 130 854 360 187 186
311 427 357 694 24 133 15 367 -19 497 -65 252 -177 442 -365 620 -189 180
-424 299 -682 345 -123 23 -363 22 -475 0 -76 -15 -84 -15 -160 3 -67 17 -126
21 -370 24 -160 2 -300 0 -313 -4z m1790 -390 c27 -17 53 -40 59 -50 5 -11 16
-19 23 -19 8 0 17 -7 20 -16 12 -32 6 -120 -12 -153 -35 -68 -250 -123 -302
-76 -39 36 -32 198 13 278 42 75 117 88 199 36z m-827 -1308 c146 -67 178
-239 65 -351 -76 -77 -173 -89 -268 -34 -84 50 -126 176 -89 267 48 114 182
169 292 118z"/>
</g>
</svg>
